<?xml version="1.0" encoding="iso-8859-1"?>
<!-- Generator: Adobe Illustrator 18.1.1, SVG Export Plug-In . SVG Version: 6.00 Build 0)  -->
<svg version="1.1" id="Capa_1" xmlns="http://www.w3.org/2000/svg" xmlns:xlink="http://www.w3.org/1999/xlink" x="0px" y="0px"
	 viewBox="0 0 532.745 532.745" style="enable-background:new 0 0 532.745 532.745;" xml:space="preserve">
<g>
	<path d="M175.564,72.647V0h-48.431v72.647v108.971v351.127h278.48V72.647H175.564z M211.887,496.422h-36.324v-36.324h36.324
		V496.422z M211.887,423.775h-36.324v-36.324h36.324V423.775z M211.887,351.127h-36.324v-36.324h36.324V351.127z M284.534,496.422
		h-36.324v-36.324h36.324V496.422z M284.534,423.775h-36.324v-36.324h36.324V423.775z M284.534,351.127h-36.324v-36.324h36.324
		V351.127z M357.181,496.422h-36.324v-36.324h36.324V496.422z M357.181,423.775h-36.324v-36.324h36.324V423.775z M357.181,351.127
		h-36.324v-36.324h36.324V351.127z M357.181,278.48H175.564v-96.863v-60.539h181.618V278.48z"/>
</g>
<g>
</g>
<g>
</g>
<g>
</g>
<g>
</g>
<g>
</g>
<g>
</g>
<g>
</g>
<g>
</g>
<g>
</g>
<g>
</g>
<g>
</g>
<g>
</g>
<g>
</g>
<g>
</g>
<g>
</g>
</svg>
